<mxfile host="65bd71144e">
    <diagram id="Af1yVxk5_la3U6ZiCL5c" name="Page-1">
        <mxGraphModel dx="2029" dy="1067" grid="0" gridSize="10" guides="1" tooltips="1" connect="1" arrows="1" fold="1" page="0" pageScale="1" pageWidth="827" pageHeight="1169" math="0" shadow="0">
            <root>
                <mxCell id="0"/>
                <mxCell id="1" parent="0"/>
                <mxCell id="b1Vyu6cEY5hWoMTOsmyk-1" value="Alice" style="shape=umlActor;verticalLabelPosition=bottom;verticalAlign=top;html=1;outlineConnect=0;" parent="1" vertex="1">
                    <mxGeometry x="-522" y="-160" width="30" height="60" as="geometry"/>
                </mxCell>
                <mxCell id="b1Vyu6cEY5hWoMTOsmyk-2" value="File / Message" style="text;html=1;strokeColor=none;fillColor=none;align=center;verticalAlign=middle;whiteSpace=wrap;rounded=0;" parent="1" vertex="1">
                    <mxGeometry x="-548" y="-69" width="85" height="30" as="geometry"/>
                </mxCell>
                <mxCell id="b1Vyu6cEY5hWoMTOsmyk-3" value="compression" style="rounded=0;whiteSpace=wrap;html=1;" parent="1" vertex="1">
                    <mxGeometry x="-565.5" y="-5" width="119.5" height="33" as="geometry"/>
                </mxCell>
                <mxCell id="b1Vyu6cEY5hWoMTOsmyk-4" value="" style="endArrow=classic;html=1;rounded=0;exitX=0.5;exitY=1;exitDx=0;exitDy=0;" parent="1" source="b1Vyu6cEY5hWoMTOsmyk-2" target="b1Vyu6cEY5hWoMTOsmyk-3" edge="1">
                    <mxGeometry width="50" height="50" relative="1" as="geometry">
                        <mxPoint x="-249" y="86" as="sourcePoint"/>
                        <mxPoint x="-199" y="36" as="targetPoint"/>
                    </mxGeometry>
                </mxCell>
                <mxCell id="b1Vyu6cEY5hWoMTOsmyk-5" value="" style="endArrow=classic;html=1;rounded=0;exitX=0.5;exitY=1;exitDx=0;exitDy=0;" parent="1" source="b1Vyu6cEY5hWoMTOsmyk-3" edge="1">
                    <mxGeometry width="50" height="50" relative="1" as="geometry">
                        <mxPoint x="-249" y="86" as="sourcePoint"/>
                        <mxPoint x="-506" y="62" as="targetPoint"/>
                    </mxGeometry>
                </mxCell>
                <mxCell id="b1Vyu6cEY5hWoMTOsmyk-6" value="message compressé&amp;nbsp;" style="text;html=1;strokeColor=none;fillColor=none;align=center;verticalAlign=middle;whiteSpace=wrap;rounded=0;" parent="1" vertex="1">
                    <mxGeometry x="-535.5" y="62" width="60" height="30" as="geometry"/>
                </mxCell>
                <mxCell id="b1Vyu6cEY5hWoMTOsmyk-7" value="" style="endArrow=classic;html=1;rounded=0;entryX=0;entryY=0.5;entryDx=0;entryDy=0;" parent="1" target="b1Vyu6cEY5hWoMTOsmyk-8" edge="1">
                    <mxGeometry width="50" height="50" relative="1" as="geometry">
                        <mxPoint x="-470" y="76" as="sourcePoint"/>
                        <mxPoint x="-283" y="74" as="targetPoint"/>
                    </mxGeometry>
                </mxCell>
                <mxCell id="b1Vyu6cEY5hWoMTOsmyk-8" value="chiffrement symétrique" style="rounded=0;whiteSpace=wrap;html=1;" parent="1" vertex="1">
                    <mxGeometry x="-284" y="55" width="91" height="44" as="geometry"/>
                </mxCell>
                <mxCell id="b1Vyu6cEY5hWoMTOsmyk-9" value="" style="endArrow=classic;html=1;rounded=0;" parent="1" edge="1">
                    <mxGeometry width="50" height="50" relative="1" as="geometry">
                        <mxPoint x="-380" y="77" as="sourcePoint"/>
                        <mxPoint x="-380" y="118" as="targetPoint"/>
                    </mxGeometry>
                </mxCell>
                <mxCell id="b1Vyu6cEY5hWoMTOsmyk-11" value="Hachage" style="rounded=0;whiteSpace=wrap;html=1;" parent="1" vertex="1">
                    <mxGeometry x="-412" y="118" width="65" height="38" as="geometry"/>
                </mxCell>
                <mxCell id="b1Vyu6cEY5hWoMTOsmyk-12" value="" style="endArrow=classic;html=1;rounded=0;exitX=1;exitY=0.5;exitDx=0;exitDy=0;" parent="1" source="b1Vyu6cEY5hWoMTOsmyk-11" edge="1">
                    <mxGeometry width="50" height="50" relative="1" as="geometry">
                        <mxPoint x="-249" y="72" as="sourcePoint"/>
                        <mxPoint x="-304" y="137" as="targetPoint"/>
                    </mxGeometry>
                </mxCell>
                <mxCell id="b1Vyu6cEY5hWoMTOsmyk-13" value="chiffrement asymetrique" style="rounded=0;whiteSpace=wrap;html=1;" parent="1" vertex="1">
                    <mxGeometry x="-203" y="119" width="93" height="37" as="geometry"/>
                </mxCell>
                <mxCell id="b1Vyu6cEY5hWoMTOsmyk-14" value="Empreinte" style="text;html=1;strokeColor=none;fillColor=none;align=center;verticalAlign=middle;whiteSpace=wrap;rounded=0;" parent="1" vertex="1">
                    <mxGeometry x="-299" y="122" width="60" height="30" as="geometry"/>
                </mxCell>
                <mxCell id="b1Vyu6cEY5hWoMTOsmyk-15" value="" style="endArrow=classic;html=1;rounded=0;entryX=0;entryY=0.5;entryDx=0;entryDy=0;exitX=1;exitY=0.5;exitDx=0;exitDy=0;" parent="1" source="b1Vyu6cEY5hWoMTOsmyk-14" target="b1Vyu6cEY5hWoMTOsmyk-13" edge="1">
                    <mxGeometry width="50" height="50" relative="1" as="geometry">
                        <mxPoint x="-249" y="65" as="sourcePoint"/>
                        <mxPoint x="-199" y="15" as="targetPoint"/>
                    </mxGeometry>
                </mxCell>
                <mxCell id="b1Vyu6cEY5hWoMTOsmyk-16" value="" style="endArrow=classic;html=1;rounded=0;entryX=0.5;entryY=1;entryDx=0;entryDy=0;" parent="1" target="b1Vyu6cEY5hWoMTOsmyk-13" edge="1">
                    <mxGeometry width="50" height="50" relative="1" as="geometry">
                        <mxPoint x="-156" y="201" as="sourcePoint"/>
                        <mxPoint x="-199" y="15" as="targetPoint"/>
                    </mxGeometry>
                </mxCell>
                <mxCell id="b1Vyu6cEY5hWoMTOsmyk-17" value="Clé Privée A" style="text;html=1;strokeColor=none;fillColor=none;align=center;verticalAlign=middle;whiteSpace=wrap;rounded=0;" parent="1" vertex="1">
                    <mxGeometry x="-184.25" y="205" width="55.5" height="30" as="geometry"/>
                </mxCell>
                <mxCell id="b1Vyu6cEY5hWoMTOsmyk-18" value="clé de session" style="text;html=1;strokeColor=none;fillColor=none;align=center;verticalAlign=middle;whiteSpace=wrap;rounded=0;" parent="1" vertex="1">
                    <mxGeometry x="-407" y="-5" width="60" height="30" as="geometry"/>
                </mxCell>
                <mxCell id="b1Vyu6cEY5hWoMTOsmyk-19" value="" style="endArrow=classic;html=1;rounded=0;exitX=1;exitY=0.5;exitDx=0;exitDy=0;entryX=0;entryY=0.5;entryDx=0;entryDy=0;" parent="1" source="b1Vyu6cEY5hWoMTOsmyk-18" target="b1Vyu6cEY5hWoMTOsmyk-20" edge="1">
                    <mxGeometry width="50" height="50" relative="1" as="geometry">
                        <mxPoint x="-249" y="51" as="sourcePoint"/>
                        <mxPoint x="-315" y="8" as="targetPoint"/>
                    </mxGeometry>
                </mxCell>
                <mxCell id="b1Vyu6cEY5hWoMTOsmyk-20" value="Clé secrete" style="text;html=1;strokeColor=none;fillColor=none;align=center;verticalAlign=middle;whiteSpace=wrap;rounded=0;" parent="1" vertex="1">
                    <mxGeometry x="-268.5" y="-3.5" width="60" height="30" as="geometry"/>
                </mxCell>
                <mxCell id="b1Vyu6cEY5hWoMTOsmyk-22" value="" style="endArrow=classic;html=1;rounded=0;entryX=0.5;entryY=0;entryDx=0;entryDy=0;exitX=0.5;exitY=1;exitDx=0;exitDy=0;" parent="1" source="b1Vyu6cEY5hWoMTOsmyk-20" target="b1Vyu6cEY5hWoMTOsmyk-8" edge="1">
                    <mxGeometry width="50" height="50" relative="1" as="geometry">
                        <mxPoint x="-249" y="44" as="sourcePoint"/>
                        <mxPoint x="-199" y="-6" as="targetPoint"/>
                    </mxGeometry>
                </mxCell>
                <mxCell id="b1Vyu6cEY5hWoMTOsmyk-23" value="" style="endArrow=classic;html=1;rounded=0;exitX=1;exitY=0.5;exitDx=0;exitDy=0;" parent="1" source="b1Vyu6cEY5hWoMTOsmyk-20" edge="1">
                    <mxGeometry width="50" height="50" relative="1" as="geometry">
                        <mxPoint x="-249" y="44" as="sourcePoint"/>
                        <mxPoint x="-147" y="12" as="targetPoint"/>
                    </mxGeometry>
                </mxCell>
                <mxCell id="b1Vyu6cEY5hWoMTOsmyk-24" value="chiffrement asymetrique" style="rounded=0;whiteSpace=wrap;html=1;" parent="1" vertex="1">
                    <mxGeometry x="-146" y="-8" width="78" height="44.5" as="geometry"/>
                </mxCell>
                <mxCell id="b1Vyu6cEY5hWoMTOsmyk-25" value="" style="endArrow=classic;html=1;rounded=0;entryX=0.5;entryY=1;entryDx=0;entryDy=0;" parent="1" target="b1Vyu6cEY5hWoMTOsmyk-17" edge="1">
                    <mxGeometry width="50" height="50" relative="1" as="geometry">
                        <mxPoint x="-156" y="270" as="sourcePoint"/>
                        <mxPoint x="-221" y="87" as="targetPoint"/>
                    </mxGeometry>
                </mxCell>
                <mxCell id="b1Vyu6cEY5hWoMTOsmyk-26" value="" style="endArrow=none;html=1;rounded=0;" parent="1" edge="1">
                    <mxGeometry width="50" height="50" relative="1" as="geometry">
                        <mxPoint x="-225" y="269" as="sourcePoint"/>
                        <mxPoint x="-155" y="269" as="targetPoint"/>
                    </mxGeometry>
                </mxCell>
                <mxCell id="b1Vyu6cEY5hWoMTOsmyk-27" value="" style="endArrow=none;dashed=1;html=1;dashPattern=1 3;strokeWidth=2;rounded=0;" parent="1" edge="1">
                    <mxGeometry width="50" height="50" relative="1" as="geometry">
                        <mxPoint x="-205" y="320" as="sourcePoint"/>
                        <mxPoint x="-205" y="198" as="targetPoint"/>
                    </mxGeometry>
                </mxCell>
                <mxCell id="b1Vyu6cEY5hWoMTOsmyk-28" value="" style="endArrow=none;dashed=1;html=1;dashPattern=1 3;strokeWidth=2;rounded=0;" parent="1" edge="1">
                    <mxGeometry width="50" height="50" relative="1" as="geometry">
                        <mxPoint x="-502" y="197" as="sourcePoint"/>
                        <mxPoint x="-205" y="197" as="targetPoint"/>
                    </mxGeometry>
                </mxCell>
                <mxCell id="b1Vyu6cEY5hWoMTOsmyk-29" value="" style="endArrow=none;dashed=1;html=1;dashPattern=1 3;strokeWidth=2;rounded=0;" parent="1" edge="1">
                    <mxGeometry width="50" height="50" relative="1" as="geometry">
                        <mxPoint x="-505" y="318" as="sourcePoint"/>
                        <mxPoint x="-209" y="318" as="targetPoint"/>
                    </mxGeometry>
                </mxCell>
                <mxCell id="b1Vyu6cEY5hWoMTOsmyk-30" value="" style="endArrow=none;dashed=1;html=1;dashPattern=1 3;strokeWidth=2;rounded=0;" parent="1" edge="1">
                    <mxGeometry width="50" height="50" relative="1" as="geometry">
                        <mxPoint x="-504" y="318" as="sourcePoint"/>
                        <mxPoint x="-504" y="197" as="targetPoint"/>
                    </mxGeometry>
                </mxCell>
                <mxCell id="b1Vyu6cEY5hWoMTOsmyk-31" value="" style="endArrow=none;html=1;rounded=0;" parent="1" edge="1">
                    <mxGeometry width="50" height="50" relative="1" as="geometry">
                        <mxPoint x="-574.5" y="218" as="sourcePoint"/>
                        <mxPoint x="-268.5" y="218" as="targetPoint"/>
                    </mxGeometry>
                </mxCell>
                <mxCell id="b1Vyu6cEY5hWoMTOsmyk-33" value="dechiffrement symetrique" style="rounded=0;whiteSpace=wrap;html=1;" parent="1" vertex="1">
                    <mxGeometry x="-313" y="248" width="88" height="42" as="geometry"/>
                </mxCell>
                <mxCell id="b1Vyu6cEY5hWoMTOsmyk-34" value="" style="endArrow=classic;html=1;rounded=0;" parent="1" edge="1">
                    <mxGeometry width="50" height="50" relative="1" as="geometry">
                        <mxPoint x="-270" y="218" as="sourcePoint"/>
                        <mxPoint x="-270" y="248" as="targetPoint"/>
                    </mxGeometry>
                </mxCell>
                <mxCell id="b1Vyu6cEY5hWoMTOsmyk-35" value="" style="endArrow=none;html=1;rounded=0;entryX=0;entryY=0.25;entryDx=0;entryDy=0;" parent="1" target="b1Vyu6cEY5hWoMTOsmyk-33" edge="1">
                    <mxGeometry width="50" height="50" relative="1" as="geometry">
                        <mxPoint x="-377" y="259" as="sourcePoint"/>
                        <mxPoint x="-221" y="80" as="targetPoint"/>
                    </mxGeometry>
                </mxCell>
                <mxCell id="b1Vyu6cEY5hWoMTOsmyk-38" value="chiffrement symetrique" style="rounded=0;whiteSpace=wrap;html=1;" parent="1" vertex="1">
                    <mxGeometry x="-465" y="248" width="88" height="42" as="geometry"/>
                </mxCell>
                <mxCell id="b1Vyu6cEY5hWoMTOsmyk-39" value="" style="endArrow=none;html=1;rounded=0;entryX=0;entryY=0.25;entryDx=0;entryDy=0;" parent="1" target="b1Vyu6cEY5hWoMTOsmyk-38" edge="1">
                    <mxGeometry width="50" height="50" relative="1" as="geometry">
                        <mxPoint x="-574" y="259" as="sourcePoint"/>
                        <mxPoint x="-221" y="80" as="targetPoint"/>
                    </mxGeometry>
                </mxCell>
                <mxCell id="b1Vyu6cEY5hWoMTOsmyk-40" value="mot de passe" style="text;html=1;strokeColor=none;fillColor=none;align=center;verticalAlign=middle;whiteSpace=wrap;rounded=0;" parent="1" vertex="1">
                    <mxGeometry x="-635" y="202" width="60" height="30" as="geometry"/>
                </mxCell>
                <mxCell id="b1Vyu6cEY5hWoMTOsmyk-41" value="clé privé A" style="text;html=1;strokeColor=none;fillColor=none;align=center;verticalAlign=middle;whiteSpace=wrap;rounded=0;" parent="1" vertex="1">
                    <mxGeometry x="-635" y="243" width="60" height="30" as="geometry"/>
                </mxCell>
                <mxCell id="b1Vyu6cEY5hWoMTOsmyk-42" value="clé publique A" style="text;html=1;strokeColor=none;fillColor=none;align=center;verticalAlign=middle;whiteSpace=wrap;rounded=0;" parent="1" vertex="1">
                    <mxGeometry x="-646.5" y="288" width="83" height="30" as="geometry"/>
                </mxCell>
                <mxCell id="b1Vyu6cEY5hWoMTOsmyk-43" value="" style="endArrow=none;html=1;rounded=0;exitX=1;exitY=0.5;exitDx=0;exitDy=0;" parent="1" source="b1Vyu6cEY5hWoMTOsmyk-42" edge="1">
                    <mxGeometry width="50" height="50" relative="1" as="geometry">
                        <mxPoint x="-465" y="116" as="sourcePoint"/>
                        <mxPoint x="66" y="303" as="targetPoint"/>
                    </mxGeometry>
                </mxCell>
                <mxCell id="b1Vyu6cEY5hWoMTOsmyk-36" value="" style="shape=cylinder3;whiteSpace=wrap;html=1;boundedLbl=1;backgroundOutline=1;size=15;" parent="1" vertex="1">
                    <mxGeometry x="-368" y="238.5" width="46" height="76.5" as="geometry"/>
                </mxCell>
                <mxCell id="b1Vyu6cEY5hWoMTOsmyk-44" value="" style="endArrow=classic;html=1;rounded=0;" parent="1" edge="1">
                    <mxGeometry width="50" height="50" relative="1" as="geometry">
                        <mxPoint x="67" y="302" as="sourcePoint"/>
                        <mxPoint x="67" y="235" as="targetPoint"/>
                    </mxGeometry>
                </mxCell>
                <mxCell id="b1Vyu6cEY5hWoMTOsmyk-45" value="Clé publique A" style="text;html=1;strokeColor=none;fillColor=none;align=center;verticalAlign=middle;whiteSpace=wrap;rounded=0;" parent="1" vertex="1">
                    <mxGeometry x="35" y="208.5" width="60" height="30" as="geometry"/>
                </mxCell>
                <mxCell id="b1Vyu6cEY5hWoMTOsmyk-46" value="" style="endArrow=classic;html=1;rounded=0;exitX=0.5;exitY=0;exitDx=0;exitDy=0;" parent="1" source="b1Vyu6cEY5hWoMTOsmyk-45" edge="1">
                    <mxGeometry width="50" height="50" relative="1" as="geometry">
                        <mxPoint x="-155" y="109" as="sourcePoint"/>
                        <mxPoint x="65" y="156" as="targetPoint"/>
                    </mxGeometry>
                </mxCell>
                <mxCell id="b1Vyu6cEY5hWoMTOsmyk-47" value="déchiffrement asymetrique" style="rounded=0;whiteSpace=wrap;html=1;" parent="1" vertex="1">
                    <mxGeometry x="19" y="117" width="92" height="40" as="geometry"/>
                </mxCell>
                <mxCell id="b1Vyu6cEY5hWoMTOsmyk-48" value="" style="endArrow=classic;html=1;rounded=0;entryX=0;entryY=0.5;entryDx=0;entryDy=0;" parent="1" target="b1Vyu6cEY5hWoMTOsmyk-47" edge="1">
                    <mxGeometry width="50" height="50" relative="1" as="geometry">
                        <mxPoint x="-7" y="137" as="sourcePoint"/>
                        <mxPoint x="-105" y="52" as="targetPoint"/>
                    </mxGeometry>
                </mxCell>
                <mxCell id="b1Vyu6cEY5hWoMTOsmyk-49" value="" style="endArrow=classic;html=1;rounded=0;entryX=0;entryY=0.5;entryDx=0;entryDy=0;" parent="1" edge="1">
                    <mxGeometry width="50" height="50" relative="1" as="geometry">
                        <mxPoint x="-110" y="136.83" as="sourcePoint"/>
                        <mxPoint x="-84" y="136.83" as="targetPoint"/>
                    </mxGeometry>
                </mxCell>
                <mxCell id="b1Vyu6cEY5hWoMTOsmyk-50" value="empreinte signé" style="text;html=1;strokeColor=none;fillColor=none;align=center;verticalAlign=middle;whiteSpace=wrap;rounded=0;" parent="1" vertex="1">
                    <mxGeometry x="-73" y="122" width="60" height="30" as="geometry"/>
                </mxCell>
                <mxCell id="b1Vyu6cEY5hWoMTOsmyk-51" value="" style="endArrow=classic;html=1;rounded=0;exitX=1;exitY=0.5;exitDx=0;exitDy=0;" parent="1" source="b1Vyu6cEY5hWoMTOsmyk-24" edge="1">
                    <mxGeometry width="50" height="50" relative="1" as="geometry">
                        <mxPoint x="17" y="-45" as="sourcePoint"/>
                        <mxPoint x="-43" y="14" as="targetPoint"/>
                    </mxGeometry>
                </mxCell>
                <mxCell id="b1Vyu6cEY5hWoMTOsmyk-52" value="" style="endArrow=classic;html=1;rounded=0;exitX=1;exitY=0.5;exitDx=0;exitDy=0;" parent="1" source="b1Vyu6cEY5hWoMTOsmyk-8" edge="1">
                    <mxGeometry width="50" height="50" relative="1" as="geometry">
                        <mxPoint x="-10" y="-19" as="sourcePoint"/>
                        <mxPoint x="-39" y="77" as="targetPoint"/>
                    </mxGeometry>
                </mxCell>
                <mxCell id="b1Vyu6cEY5hWoMTOsmyk-53" value="message chiffré" style="text;html=1;strokeColor=none;fillColor=none;align=center;verticalAlign=middle;whiteSpace=wrap;rounded=0;" parent="1" vertex="1">
                    <mxGeometry x="-37" y="62" width="60" height="30" as="geometry"/>
                </mxCell>
                <mxCell id="b1Vyu6cEY5hWoMTOsmyk-54" value="" style="endArrow=classic;html=1;rounded=0;exitX=1;exitY=0.5;exitDx=0;exitDy=0;" parent="1" source="b1Vyu6cEY5hWoMTOsmyk-53" edge="1">
                    <mxGeometry width="50" height="50" relative="1" as="geometry">
                        <mxPoint x="-10" y="-26" as="sourcePoint"/>
                        <mxPoint x="164" y="77" as="targetPoint"/>
                    </mxGeometry>
                </mxCell>
                <mxCell id="b1Vyu6cEY5hWoMTOsmyk-55" value="clé chiffrée" style="text;html=1;strokeColor=none;fillColor=none;align=center;verticalAlign=middle;whiteSpace=wrap;rounded=0;" parent="1" vertex="1">
                    <mxGeometry x="-39" y="-0.75" width="60" height="30" as="geometry"/>
                </mxCell>
                <mxCell id="b1Vyu6cEY5hWoMTOsmyk-56" value="" style="endArrow=classic;html=1;rounded=0;exitX=1;exitY=0.5;exitDx=0;exitDy=0;" parent="1" edge="1">
                    <mxGeometry width="50" height="50" relative="1" as="geometry">
                        <mxPoint x="23" y="14.33" as="sourcePoint"/>
                        <mxPoint x="48" y="14.08" as="targetPoint"/>
                    </mxGeometry>
                </mxCell>
                <mxCell id="b1Vyu6cEY5hWoMTOsmyk-57" value="dechiffrement asymetrique" style="rounded=0;whiteSpace=wrap;html=1;" parent="1" vertex="1">
                    <mxGeometry x="47" y="-8" width="78" height="44.5" as="geometry"/>
                </mxCell>
                <mxCell id="b1Vyu6cEY5hWoMTOsmyk-58" value="" style="endArrow=classic;html=1;rounded=0;entryX=0.5;entryY=0;entryDx=0;entryDy=0;" parent="1" target="b1Vyu6cEY5hWoMTOsmyk-57" edge="1">
                    <mxGeometry width="50" height="50" relative="1" as="geometry">
                        <mxPoint x="86" y="-51" as="sourcePoint"/>
                        <mxPoint x="95" y="-65" as="targetPoint"/>
                    </mxGeometry>
                </mxCell>
                <mxCell id="b1Vyu6cEY5hWoMTOsmyk-59" value="" style="endArrow=classic;html=1;rounded=0;entryX=0.5;entryY=0;entryDx=0;entryDy=0;" parent="1" target="b1Vyu6cEY5hWoMTOsmyk-24" edge="1">
                    <mxGeometry width="50" height="50" relative="1" as="geometry">
                        <mxPoint x="-107" y="-51" as="sourcePoint"/>
                        <mxPoint x="2" y="-65" as="targetPoint"/>
                    </mxGeometry>
                </mxCell>
                <mxCell id="b1Vyu6cEY5hWoMTOsmyk-60" value="clé publique B" style="text;html=1;strokeColor=none;fillColor=none;align=center;verticalAlign=middle;whiteSpace=wrap;rounded=0;" parent="1" vertex="1">
                    <mxGeometry x="-137" y="-84" width="60" height="30" as="geometry"/>
                </mxCell>
                <mxCell id="b1Vyu6cEY5hWoMTOsmyk-61" value="clé privée B" style="text;html=1;strokeColor=none;fillColor=none;align=center;verticalAlign=middle;whiteSpace=wrap;rounded=0;" parent="1" vertex="1">
                    <mxGeometry x="61.5" y="-81" width="49" height="30" as="geometry"/>
                </mxCell>
                <mxCell id="b1Vyu6cEY5hWoMTOsmyk-62" value="" style="endArrow=classic;html=1;rounded=0;" parent="1" edge="1">
                    <mxGeometry width="50" height="50" relative="1" as="geometry">
                        <mxPoint x="-105" y="-135" as="sourcePoint"/>
                        <mxPoint x="-105" y="-88" as="targetPoint"/>
                    </mxGeometry>
                </mxCell>
                <mxCell id="b1Vyu6cEY5hWoMTOsmyk-63" value="" style="endArrow=classic;html=1;rounded=0;" parent="1" edge="1">
                    <mxGeometry width="50" height="50" relative="1" as="geometry">
                        <mxPoint x="88" y="-118" as="sourcePoint"/>
                        <mxPoint x="88" y="-84" as="targetPoint"/>
                    </mxGeometry>
                </mxCell>
                <mxCell id="b1Vyu6cEY5hWoMTOsmyk-64" value="" style="endArrow=none;html=1;rounded=0;entryX=0;entryY=0;entryDx=0;entryDy=0;" parent="1" target="b1Vyu6cEY5hWoMTOsmyk-74" edge="1">
                    <mxGeometry width="50" height="50" relative="1" as="geometry">
                        <mxPoint x="-105" y="-135" as="sourcePoint"/>
                        <mxPoint x="212" y="-135" as="targetPoint"/>
                    </mxGeometry>
                </mxCell>
                <mxCell id="b1Vyu6cEY5hWoMTOsmyk-65" value="" style="endArrow=none;html=1;rounded=0;entryX=0;entryY=0.5;entryDx=0;entryDy=0;" parent="1" target="b1Vyu6cEY5hWoMTOsmyk-74" edge="1">
                    <mxGeometry width="50" height="50" relative="1" as="geometry">
                        <mxPoint x="87" y="-119" as="sourcePoint"/>
                        <mxPoint x="212" y="-119" as="targetPoint"/>
                    </mxGeometry>
                </mxCell>
                <mxCell id="b1Vyu6cEY5hWoMTOsmyk-66" value="" style="endArrow=none;dashed=1;html=1;dashPattern=1 3;strokeWidth=2;rounded=0;" parent="1" edge="1">
                    <mxGeometry width="50" height="50" relative="1" as="geometry">
                        <mxPoint x="102" y="-107" as="sourcePoint"/>
                        <mxPoint x="102" y="-148" as="targetPoint"/>
                    </mxGeometry>
                </mxCell>
                <mxCell id="b1Vyu6cEY5hWoMTOsmyk-67" value="" style="endArrow=none;dashed=1;html=1;dashPattern=1 3;strokeWidth=2;rounded=0;" parent="1" edge="1">
                    <mxGeometry width="50" height="50" relative="1" as="geometry">
                        <mxPoint x="183" y="-107" as="sourcePoint"/>
                        <mxPoint x="183" y="-148" as="targetPoint"/>
                    </mxGeometry>
                </mxCell>
                <mxCell id="b1Vyu6cEY5hWoMTOsmyk-68" value="" style="endArrow=none;dashed=1;html=1;dashPattern=1 3;strokeWidth=2;rounded=0;" parent="1" edge="1">
                    <mxGeometry width="50" height="50" relative="1" as="geometry">
                        <mxPoint x="103" y="-147" as="sourcePoint"/>
                        <mxPoint x="183" y="-147" as="targetPoint"/>
                    </mxGeometry>
                </mxCell>
                <mxCell id="b1Vyu6cEY5hWoMTOsmyk-69" value="" style="endArrow=none;dashed=1;html=1;dashPattern=1 3;strokeWidth=2;rounded=0;" parent="1" edge="1">
                    <mxGeometry width="50" height="50" relative="1" as="geometry">
                        <mxPoint x="103" y="-107" as="sourcePoint"/>
                        <mxPoint x="182" y="-107" as="targetPoint"/>
                    </mxGeometry>
                </mxCell>
                <mxCell id="b1Vyu6cEY5hWoMTOsmyk-71" value="Bob" style="shape=umlActor;verticalLabelPosition=bottom;verticalAlign=top;html=1;outlineConnect=0;" parent="1" vertex="1">
                    <mxGeometry x="356" y="-157" width="30" height="60" as="geometry"/>
                </mxCell>
                <mxCell id="b1Vyu6cEY5hWoMTOsmyk-72" value="clé publique B" style="text;html=1;strokeColor=none;fillColor=none;align=center;verticalAlign=middle;whiteSpace=wrap;rounded=0;" parent="1" vertex="1">
                    <mxGeometry x="264" y="-150" width="86" height="30" as="geometry"/>
                </mxCell>
                <mxCell id="b1Vyu6cEY5hWoMTOsmyk-74" value="clé privé B" style="text;html=1;strokeColor=none;fillColor=none;align=center;verticalAlign=middle;whiteSpace=wrap;rounded=0;" parent="1" vertex="1">
                    <mxGeometry x="255" y="-134" width="86" height="30" as="geometry"/>
                </mxCell>
                <mxCell id="b1Vyu6cEY5hWoMTOsmyk-76" value="" style="endArrow=classic;html=1;rounded=0;" parent="1" edge="1">
                    <mxGeometry width="50" height="50" relative="1" as="geometry">
                        <mxPoint x="111" y="138" as="sourcePoint"/>
                        <mxPoint x="189" y="177" as="targetPoint"/>
                    </mxGeometry>
                </mxCell>
                <mxCell id="b1Vyu6cEY5hWoMTOsmyk-78" value="Empreinte" style="text;html=1;strokeColor=none;fillColor=none;align=center;verticalAlign=middle;whiteSpace=wrap;rounded=0;" parent="1" vertex="1">
                    <mxGeometry x="166" y="178.5" width="60" height="30" as="geometry"/>
                </mxCell>
                <mxCell id="b1Vyu6cEY5hWoMTOsmyk-79" value="Empreinte" style="text;html=1;strokeColor=none;fillColor=none;align=center;verticalAlign=middle;whiteSpace=wrap;rounded=0;" parent="1" vertex="1">
                    <mxGeometry x="246" y="178.5" width="60" height="30" as="geometry"/>
                </mxCell>
                <mxCell id="b1Vyu6cEY5hWoMTOsmyk-80" value="déchiffrement symetrique" style="rounded=0;whiteSpace=wrap;html=1;" parent="1" vertex="1">
                    <mxGeometry x="163" y="59" width="92" height="40" as="geometry"/>
                </mxCell>
                <mxCell id="b1Vyu6cEY5hWoMTOsmyk-81" value="" style="endArrow=classic;html=1;rounded=0;entryX=0.5;entryY=0;entryDx=0;entryDy=0;" parent="1" target="b1Vyu6cEY5hWoMTOsmyk-79" edge="1">
                    <mxGeometry width="50" height="50" relative="1" as="geometry">
                        <mxPoint x="276" y="146" as="sourcePoint"/>
                        <mxPoint x="136" y="5" as="targetPoint"/>
                    </mxGeometry>
                </mxCell>
                <mxCell id="b1Vyu6cEY5hWoMTOsmyk-83" value="" style="endArrow=classic;html=1;rounded=0;exitX=1;exitY=0.5;exitDx=0;exitDy=0;" parent="1" source="b1Vyu6cEY5hWoMTOsmyk-80" edge="1">
                    <mxGeometry width="50" height="50" relative="1" as="geometry">
                        <mxPoint x="86" y="55" as="sourcePoint"/>
                        <mxPoint x="339" y="79" as="targetPoint"/>
                    </mxGeometry>
                </mxCell>
                <mxCell id="b1Vyu6cEY5hWoMTOsmyk-84" value="Hachage" style="rounded=0;whiteSpace=wrap;html=1;" parent="1" vertex="1">
                    <mxGeometry x="232.5" y="114" width="87" height="31" as="geometry"/>
                </mxCell>
                <mxCell id="b1Vyu6cEY5hWoMTOsmyk-85" value="" style="endArrow=classic;html=1;rounded=0;entryX=0.5;entryY=0;entryDx=0;entryDy=0;" parent="1" target="b1Vyu6cEY5hWoMTOsmyk-84" edge="1">
                    <mxGeometry width="50" height="50" relative="1" as="geometry">
                        <mxPoint x="276" y="81" as="sourcePoint"/>
                        <mxPoint x="136" y="5" as="targetPoint"/>
                    </mxGeometry>
                </mxCell>
                <mxCell id="b1Vyu6cEY5hWoMTOsmyk-86" value="message compressé" style="text;html=1;strokeColor=none;fillColor=none;align=center;verticalAlign=middle;whiteSpace=wrap;rounded=0;" parent="1" vertex="1">
                    <mxGeometry x="341" y="64" width="60" height="30" as="geometry"/>
                </mxCell>
                <mxCell id="b1Vyu6cEY5hWoMTOsmyk-87" value="" style="endArrow=classic;html=1;rounded=0;exitX=0.5;exitY=0;exitDx=0;exitDy=0;" parent="1" source="b1Vyu6cEY5hWoMTOsmyk-86" edge="1">
                    <mxGeometry width="50" height="50" relative="1" as="geometry">
                        <mxPoint x="86" y="48" as="sourcePoint"/>
                        <mxPoint x="371" y="13" as="targetPoint"/>
                    </mxGeometry>
                </mxCell>
                <mxCell id="b1Vyu6cEY5hWoMTOsmyk-88" value="décompression" style="rounded=0;whiteSpace=wrap;html=1;" parent="1" vertex="1">
                    <mxGeometry x="323.5" y="-20" width="95" height="30" as="geometry"/>
                </mxCell>
                <mxCell id="b1Vyu6cEY5hWoMTOsmyk-89" value="" style="endArrow=classic;html=1;rounded=0;exitX=0.5;exitY=0;exitDx=0;exitDy=0;" parent="1" source="b1Vyu6cEY5hWoMTOsmyk-88" edge="1">
                    <mxGeometry width="50" height="50" relative="1" as="geometry">
                        <mxPoint x="86" y="48" as="sourcePoint"/>
                        <mxPoint x="371" y="-48" as="targetPoint"/>
                    </mxGeometry>
                </mxCell>
                <mxCell id="b1Vyu6cEY5hWoMTOsmyk-91" value="File / Message" style="text;html=1;strokeColor=none;fillColor=none;align=center;verticalAlign=middle;whiteSpace=wrap;rounded=0;" parent="1" vertex="1">
                    <mxGeometry x="324.5" y="-77" width="94" height="30" as="geometry"/>
                </mxCell>
                <mxCell id="b1Vyu6cEY5hWoMTOsmyk-92" value="" style="endArrow=classic;html=1;rounded=0;exitX=0.5;exitY=1;exitDx=0;exitDy=0;" parent="1" source="b1Vyu6cEY5hWoMTOsmyk-78" edge="1">
                    <mxGeometry width="50" height="50" relative="1" as="geometry">
                        <mxPoint x="86" y="141" as="sourcePoint"/>
                        <mxPoint x="237" y="250" as="targetPoint"/>
                    </mxGeometry>
                </mxCell>
                <mxCell id="b1Vyu6cEY5hWoMTOsmyk-93" value="" style="endArrow=classic;html=1;rounded=0;exitX=0.5;exitY=1;exitDx=0;exitDy=0;" parent="1" source="b1Vyu6cEY5hWoMTOsmyk-79" edge="1">
                    <mxGeometry width="50" height="50" relative="1" as="geometry">
                        <mxPoint x="86" y="141" as="sourcePoint"/>
                        <mxPoint x="244" y="249" as="targetPoint"/>
                    </mxGeometry>
                </mxCell>
                <mxCell id="b1Vyu6cEY5hWoMTOsmyk-94" value="= ?&amp;nbsp;" style="text;html=1;strokeColor=none;fillColor=none;align=center;verticalAlign=middle;whiteSpace=wrap;rounded=0;" parent="1" vertex="1">
                    <mxGeometry x="195" y="248" width="60" height="30" as="geometry"/>
                </mxCell>
                <mxCell id="b1Vyu6cEY5hWoMTOsmyk-95" value="" style="endArrow=classic;html=1;rounded=0;exitX=1;exitY=0.5;exitDx=0;exitDy=0;" parent="1" source="b1Vyu6cEY5hWoMTOsmyk-94" edge="1">
                    <mxGeometry width="50" height="50" relative="1" as="geometry">
                        <mxPoint x="86" y="141" as="sourcePoint"/>
                        <mxPoint x="295" y="263" as="targetPoint"/>
                    </mxGeometry>
                </mxCell>
                <mxCell id="b1Vyu6cEY5hWoMTOsmyk-96" value="message authentique" style="text;html=1;strokeColor=none;fillColor=none;align=center;verticalAlign=middle;whiteSpace=wrap;rounded=0;" parent="1" vertex="1">
                    <mxGeometry x="296" y="248" width="131" height="30" as="geometry"/>
                </mxCell>
                <mxCell id="2" value="" style="endArrow=classic;html=1;rounded=0;exitX=1;exitY=0.5;exitDx=0;exitDy=0;" edge="1" parent="1" source="b1Vyu6cEY5hWoMTOsmyk-57" target="3">
                    <mxGeometry width="50" height="50" relative="1" as="geometry">
                        <mxPoint x="134.99999999999977" y="11.120000000000001" as="sourcePoint"/>
                        <mxPoint x="174" y="11.120000000000001" as="targetPoint"/>
                    </mxGeometry>
                </mxCell>
                <mxCell id="3" value="Clé secrete" style="text;html=1;strokeColor=none;fillColor=none;align=center;verticalAlign=middle;whiteSpace=wrap;rounded=0;" vertex="1" parent="1">
                    <mxGeometry x="179" y="-0.75" width="60" height="30" as="geometry"/>
                </mxCell>
                <mxCell id="4" value="" style="endArrow=classic;html=1;rounded=0;entryX=0.5;entryY=0;entryDx=0;entryDy=0;exitX=0.5;exitY=1;exitDx=0;exitDy=0;" edge="1" parent="1" source="3" target="b1Vyu6cEY5hWoMTOsmyk-80">
                    <mxGeometry width="50" height="50" relative="1" as="geometry">
                        <mxPoint x="173" y="32" as="sourcePoint"/>
                        <mxPoint x="-228.5" y="65" as="targetPoint"/>
                    </mxGeometry>
                </mxCell>
            </root>
        </mxGraphModel>
    </diagram>
</mxfile>